<svg width="86" height="56" viewBox="0 0 86 56" fill="none" xmlns="http://www.w3.org/2000/svg">
<path d="M44.9542 10.7599C47.9255 10.7599 50.3342 8.35124 50.3342 5.37997C50.3342 2.40869 47.9255 0 44.9542 0C41.9829 0 39.5742 2.40869 39.5742 5.37997C39.5742 8.35124 41.9829 10.7599 44.9542 10.7599Z" fill="#0354F3"/>
<path d="M22.8213 5.9708C22.5158 6.3762 22.0892 6.67388 21.6033 6.82076C21.1174 6.96764 20.5973 6.95611 20.1184 6.78782C19.6394 6.61954 19.2265 6.30324 18.9392 5.88469C18.652 5.46613 18.5054 4.96704 18.5206 4.45964C18.5358 3.95223 18.7121 3.46283 19.0239 3.06225C19.3357 2.66167 19.7669 2.37069 20.2551 2.23142C20.7432 2.09215 21.263 2.11181 21.7393 2.28756C22.2155 2.4633 22.6235 2.78602 22.9041 3.20901L22.1474 3.81108C22.0205 3.59344 21.8385 3.41303 21.6198 3.28796C21.401 3.16289 21.1533 3.09757 20.9013 3.09855C20.6493 3.09953 20.4021 3.16679 20.1843 3.29356C19.9666 3.42033 19.786 3.60215 19.6608 3.82078C19.5355 4.0394 19.47 4.28713 19.4708 4.53909C19.4715 4.79105 19.5386 5.03837 19.6652 5.25622C19.7918 5.47407 19.9735 5.65478 20.192 5.78021C20.4105 5.90564 20.6582 5.97137 20.9101 5.9708C21.2623 5.96913 21.6019 5.83958 21.8657 5.60624V5.33006H20.761V4.38001H22.8323L22.8213 5.9708Z" fill="#1D1D1B"/>
<path d="M34.8011 6.92634H33.6964L32.8624 5.65039H32.1001V6.92634H31.1445V2.14844H32.8955C33.2772 2.14736 33.6488 2.27102 33.9537 2.50062C34.2586 2.73021 34.4802 3.05315 34.5846 3.42028C34.6891 3.7874 34.6707 4.1786 34.5323 4.53432C34.3939 4.89004 34.143 5.19079 33.8179 5.39079L34.8011 6.92634ZM32.8734 4.71691C32.9779 4.71691 33.0813 4.69634 33.1778 4.65636C33.2743 4.61639 33.362 4.5578 33.4358 4.48394C33.5097 4.41008 33.5683 4.3224 33.6083 4.2259C33.6482 4.1294 33.6688 4.02597 33.6688 3.92151C33.6688 3.81706 33.6482 3.71363 33.6083 3.61713C33.5683 3.52063 33.5097 3.43294 33.4358 3.35908C33.362 3.28522 33.2743 3.22664 33.1778 3.18666C33.0813 3.14669 32.9779 3.12612 32.8734 3.12612H32.1001V4.69481L32.8734 4.71691Z" fill="#1D1D1B"/>
<path d="M46.1771 6.44621H43.7191L43.2883 7.24161H42.1836L44.9454 2.2041L47.7072 7.24161H46.6025L46.1771 6.44621ZM45.6579 5.49063L44.9509 4.19259L44.2439 5.49063H45.6579Z" fill="white"/>
<path d="M55.625 2.14844H55.8791L58.8066 4.91023V2.14844H59.7622V6.92633H59.5025L56.5806 4.16454V6.92633H55.625V2.14844Z" fill="#1D1D1B"/>
<path d="M68.3789 6.92617V2.14827H70.152C70.4754 2.13272 70.7985 2.18298 71.1019 2.29602C71.4053 2.40905 71.6826 2.58251 71.917 2.80588C72.1513 3.02924 72.3379 3.29786 72.4654 3.59547C72.5929 3.89307 72.6586 4.21346 72.6586 4.53722C72.6586 4.86098 72.5929 5.18137 72.4654 5.47897C72.3379 5.77657 72.1513 6.0452 71.917 6.26856C71.6826 6.49193 71.4053 6.66538 71.1019 6.77842C70.7985 6.89146 70.4754 6.94172 70.152 6.92617H68.3789ZM70.152 5.97059C70.3477 5.98274 70.5438 5.95469 70.7283 5.88815C70.9128 5.82162 71.0816 5.71801 71.2245 5.58372C71.3674 5.44942 71.4813 5.28729 71.5591 5.10731C71.637 4.92733 71.6771 4.73331 71.6771 4.53722C71.6771 4.34112 71.637 4.14711 71.5591 3.96713C71.4813 3.78715 71.3674 3.62501 71.2245 3.49072C71.0816 3.35643 70.9128 3.25282 70.7283 3.18628C70.5438 3.11975 70.3477 3.09169 70.152 3.10385H69.3566V5.97059H70.152Z" fill="#1D1D1B"/>
<path d="M11.3785 30.1697C13.4736 26.6997 15.8375 23.3994 18.4486 20.299C18.6556 20.0142 18.9261 19.7815 19.2386 19.6194C19.5512 19.4574 19.8973 19.3705 20.2493 19.3655C20.7874 19.3754 21.3081 19.5574 21.7352 19.8848C22.0266 20.0445 22.2699 20.2794 22.4399 20.5649C22.6099 20.8505 22.7003 21.1764 22.7018 21.5087C22.7147 21.7778 22.6542 22.0454 22.5268 22.2828C22.3993 22.5202 22.2097 22.7185 21.9782 22.8564C21.3301 23.2505 20.4095 24.2594 19.2164 25.8834C18.0233 27.5073 16.6111 29.4958 14.9798 31.8488C16.467 31.8016 17.9369 31.5144 19.3324 30.9982C21.2711 30.3387 23.0968 29.3848 24.7455 28.1701C27.4147 26.2225 29.4526 23.5334 30.606 20.4371C30.9424 19.6055 31.1293 18.721 31.1584 17.8245C31.1584 16.009 30.0979 15.0995 27.9768 15.0958C25.9515 15.0958 23.6003 15.7586 20.9232 17.0843C18.1988 18.4433 15.6822 20.1842 13.4498 22.2544C11.3663 24.0855 9.67526 26.3196 8.47858 28.8219C8.30346 29.1896 8.18075 29.5801 8.11403 29.9819C8.01608 30.3414 7.98796 30.7164 8.03117 31.0866V31.1915C8.03647 31.2461 8.03073 31.3012 8.01429 31.3535C7.99785 31.4058 7.97105 31.4543 7.93549 31.4961C7.89993 31.5378 7.85633 31.572 7.80729 31.5965C7.75825 31.6211 7.70478 31.6355 7.65004 31.6389C7.45604 31.6832 7.25798 31.7073 7.05902 31.7107C6.26648 31.708 5.49439 31.459 4.84959 30.9982C4.53949 30.8264 4.27896 30.5776 4.09318 30.2757C3.90739 29.9738 3.80265 29.6291 3.78906 29.2748C3.87201 27.6745 4.43179 26.1356 5.39642 24.856C6.50339 23.2333 7.80155 21.7497 9.26293 20.4371C10.5578 19.2331 11.9509 18.1394 13.4277 17.1672C15.6046 15.7593 17.9626 14.6536 20.4371 13.8806C22.7913 13.1264 25.2453 12.7298 27.7172 12.7041C29.9266 12.7041 31.65 13.2749 32.8873 14.4164C33.4944 14.9773 33.9738 15.6622 34.2931 16.4246C34.6123 17.187 34.764 18.0091 34.7377 18.8353C34.7161 20.0469 34.4689 21.2439 34.0086 22.3648C32.9394 24.9334 31.1972 27.166 28.9655 28.8274C26.6367 30.6487 24.0242 32.0744 21.2325 33.0474C18.8403 33.94 16.317 34.4309 13.7646 34.5001H13.726C13.5999 34.8628 13.4428 35.2139 13.2565 35.5496C12.2622 37.505 11.4024 39.2909 10.677 40.9075C10.0716 42.1229 9.66865 43.4289 9.48387 44.774C9.4802 44.9241 9.49316 45.0742 9.52254 45.2214L9.55568 45.5363C9.55116 45.6879 9.52703 45.8383 9.48387 45.9837C9.45721 46.0569 9.41608 46.1239 9.36294 46.1809C9.30979 46.2378 9.24572 46.2834 9.17455 46.3151C9.01267 46.3931 8.83502 46.4328 8.65534 46.4311C8.23579 46.4213 7.82325 46.3215 7.44567 46.1383C6.97026 45.91 6.56418 45.5592 6.26915 45.122C5.89622 44.5342 5.71481 43.8453 5.74993 43.1501C5.76622 42.2158 5.94181 41.2911 6.26915 40.4159C7.6088 36.831 9.3213 33.3968 11.3785 30.1697Z" fill="#1D1D1B"/>
<path d="M36.7764 24.7569C37.3444 24.3529 38.0185 24.1243 38.7152 24.0996C39.8917 24.0996 40.4772 25.0607 40.4772 26.9719C40.475 27.7268 40.3992 28.4798 40.2507 29.22C40.1282 29.8983 39.9621 30.568 39.7536 31.225C39.4857 31.9529 39.1606 32.6584 38.7814 33.335C39.5302 32.9771 40.2331 32.5302 40.8749 32.0039C41.5414 31.4625 42.3036 30.7758 43.1616 29.9436L43.9018 29.2752C44.1338 29.0929 44.2829 29.0156 44.3492 29.0377C44.4155 29.0598 44.4542 29.115 44.4542 29.2089C44.4375 29.3756 44.3786 29.5354 44.2829 29.6729C44.2061 29.8154 44.1135 29.9488 44.0067 30.0706C43.0459 31.2407 41.999 32.3374 40.8749 33.3516C39.9367 34.2094 38.8387 34.8738 37.6436 35.307C37.1102 36.1018 36.5292 36.8636 35.9037 37.5882C35.0445 38.5918 34.0755 39.496 33.0148 40.2837C32.0095 41.0202 31.3577 41.3884 31.0595 41.3884C30.5893 41.3544 30.1415 41.1748 29.778 40.8747C29.3055 40.5283 28.8803 40.1216 28.5131 39.6651C28.2038 39.3067 27.9589 38.8974 27.7895 38.4554C27.6081 37.8949 27.5131 37.3101 27.5078 36.721C27.5146 36.1862 27.5738 35.6534 27.6846 35.1302C28.0089 33.4885 28.6304 31.9198 29.5184 30.5014C30.3735 29.0358 31.4848 27.7355 32.7994 26.6625C33.6381 25.9675 34.6017 25.4388 35.6385 25.1049C35.7035 25.0795 35.7732 25.0682 35.8429 25.0718C35.9073 25.0697 35.9714 25.0809 36.0312 25.1046C36.0911 25.1284 36.1454 25.1642 36.1909 25.2098C36.3727 25.0424 36.5686 24.8908 36.7764 24.7569ZM33.6335 34.4563C33.22 33.794 33.0035 33.0277 33.0093 32.2469C33.0167 31.8058 33.0611 31.366 33.1419 30.9323C32.479 31.8512 31.9231 32.8426 31.4848 33.8874C31.1044 34.7601 30.8944 35.6976 30.8661 36.6492C30.8309 37.0577 30.934 37.4663 31.1589 37.8091C31.2509 37.9265 31.3695 38.0203 31.5049 38.0828C31.6404 38.1452 31.7887 38.1745 31.9377 38.1682C32.2572 38.158 32.5704 38.0769 32.8546 37.9307C33.1884 37.7673 33.4972 37.5571 33.7716 37.3065C34.3654 36.7708 34.8954 36.1684 35.3513 35.5113C35.0046 35.4741 34.6705 35.3601 34.3734 35.1776C34.0762 34.9951 33.8235 34.7487 33.6335 34.4563ZM38.3009 29.3249C38.4693 28.6918 38.562 28.041 38.5771 27.3861C38.5787 27.1108 38.5377 26.8369 38.4555 26.5742C38.4308 26.4748 38.3857 26.3818 38.3229 26.3009C38.2601 26.22 38.1811 26.1532 38.091 26.1047C37.9804 26.0883 37.8675 26.0955 37.7599 26.126C37.6523 26.1565 37.5524 26.2095 37.4668 26.2814C37.2045 26.477 36.972 26.7096 36.7764 26.9719C36.3104 27.7006 35.9391 28.4857 35.6717 29.3083C35.3987 30.0564 35.2476 30.8434 35.2243 31.6393C35.2059 32.1576 35.312 32.6728 35.5336 33.1417C35.6233 33.3305 35.7587 33.494 35.9275 33.6175C36.0962 33.7409 36.2931 33.8204 36.5002 33.8487C37.0029 33.0161 37.421 32.1353 37.7485 31.2195C37.9308 30.6948 38.1131 30.0596 38.3009 29.3249Z" fill="#1D1D1B"/>
<path d="M52.8301 29.0649C52.9784 29.0289 53.1304 29.0104 53.283 29.0097C53.4653 29.0097 53.5592 29.0594 53.5592 29.1478C53.5592 29.2362 53.4322 29.3577 53.1781 29.4958C53.04 29.5676 52.7307 29.7167 52.2446 29.9432L50.93 30.5674C50.1014 30.9135 49.225 31.3296 48.3008 31.8157C47.1651 32.4067 46.079 33.0883 45.0529 33.8539C44.959 34.3344 44.8651 35.1077 44.7767 36.1683C44.7723 36.4696 44.7483 36.7704 44.7049 37.0686C44.6165 37.9248 44.5281 38.5765 44.4453 39.0405C44.367 39.504 44.2335 39.9565 44.0476 40.3883C43.6834 41.269 43.1155 42.0508 42.3905 42.6695C41.7255 43.2999 40.8487 43.6585 39.9325 43.6748C38.8499 43.6748 38.3086 42.9254 38.3086 41.4267C38.3141 40.7946 38.4071 40.1664 38.5848 39.5597C39.0146 38.2094 39.722 36.9639 40.6616 35.9031C41.0679 35.3612 41.5433 34.8747 42.0757 34.456C42.1283 32.6281 42.5022 30.8239 43.1804 29.1257C43.5397 28.2622 44.0545 27.4721 44.6994 26.7947C45.3373 26.0874 46.083 25.4853 46.9088 25.0106C47.3884 24.714 47.9021 24.4766 48.4388 24.3036C48.8076 24.1755 49.1924 24.0993 49.5822 24.0771C49.8476 24.0902 50.1015 24.189 50.3058 24.3589C50.584 24.6116 50.8029 24.9229 50.9465 25.2702C51.0953 25.6196 51.1723 25.9953 51.173 26.375C51.1558 26.6552 51.1095 26.9328 51.0349 27.2035C51.0001 27.2398 50.9703 27.2807 50.9465 27.325C50.9194 27.377 50.877 27.4194 50.825 27.4465H50.7256L50.4439 27.3747C50.3555 27.2587 50.1125 27.2256 49.7203 27.2698C49.0128 27.369 48.3572 27.6968 47.8533 28.2033C47.0661 28.9372 46.4316 29.8194 45.9864 30.7993C45.8483 31.0755 45.6605 31.5119 45.434 32.114C46.6184 31.462 47.8414 30.8828 49.0961 30.3796C50.2929 29.8935 51.4345 29.4884 52.5208 29.1644L52.8301 29.0649ZM41.0593 38.1126C40.7403 38.5655 40.5115 39.0756 40.3855 39.615C40.321 39.8641 40.2858 40.1199 40.2805 40.3772C40.2805 40.7915 40.3965 41.0014 40.623 41.0014C40.7254 40.9903 40.8245 40.958 40.9138 40.9067C41.0032 40.8553 41.081 40.786 41.1422 40.7031C41.3406 40.4888 41.4946 40.2372 41.5951 39.963C41.8987 39.1323 42.0394 38.2508 42.0094 37.3669V36.7206C41.8923 36.9008 41.7651 37.0741 41.6283 37.2398C41.5841 37.3116 41.3908 37.5933 41.0593 38.1126Z" fill="#1D1D1B"/>
<path d="M49.4802 40.8744C49.1344 40.5516 48.8384 40.1793 48.602 39.7697C48.3696 39.3071 48.2503 38.796 48.254 38.2783C48.2997 37.3166 48.5482 36.3755 48.9831 35.5165C49.738 33.7858 50.6475 31.8949 51.7117 29.8438C52.776 27.7927 53.8254 25.8668 54.8602 24.0661C55.0913 23.615 55.3457 23.1762 55.6224 22.7515H55.3463C55.1158 22.7841 54.883 22.7971 54.6503 22.7902C53.2473 22.7902 52.5403 22.3372 52.5403 21.4424C52.5432 21.1824 52.5898 20.9247 52.6784 20.6802C52.706 20.5777 52.754 20.4819 52.8195 20.3983C52.8849 20.3148 52.9666 20.2454 53.0595 20.1941L53.1644 20.161C53.2595 20.1694 53.3499 20.2059 53.4241 20.2659C53.4971 20.3159 53.5727 20.362 53.6505 20.404C54.1631 20.829 54.8204 21.0389 55.4843 20.9895C55.8442 20.991 56.2032 20.9558 56.5559 20.8845L56.6222 20.8183C57.7048 18.9771 58.7764 17.0862 59.8369 15.1455C59.984 14.8732 60.1701 14.6239 60.3893 14.4054C60.4759 14.3203 60.5787 14.2534 60.6916 14.2088C60.8045 14.1642 60.9252 14.1428 61.0466 14.1458C61.6063 14.1832 62.139 14.4002 62.5656 14.7644C63.0347 15.0705 63.3748 15.5384 63.5212 16.079V16.2503C63.5285 16.3574 63.5141 16.465 63.479 16.5665C63.4439 16.6681 63.3887 16.7615 63.3168 16.8413C62.9059 17.3129 62.5241 17.8091 62.1734 18.3271L60.8975 20.1941C62.5987 20.1941 63.3812 20.7465 63.245 21.8512C63.1993 22.0453 63.1248 22.2315 63.024 22.4035C62.9395 22.5558 62.813 22.6804 62.6595 22.7626H62.5877C62.394 22.7396 62.2125 22.6565 62.0685 22.5251C61.7627 22.2736 61.4097 22.0859 61.0302 21.973C60.6507 21.8601 60.2525 21.8243 59.859 21.8677C58.3345 24.2871 56.9168 26.7874 55.6059 29.3688C54.3837 31.7439 53.3082 34.1918 52.3856 36.6986C52.3305 36.8188 52.2968 36.9478 52.2862 37.0797C52.2862 37.2454 52.3525 37.3227 52.4906 37.3227C52.7149 37.3031 52.9301 37.225 53.1147 37.0963C53.3142 36.9865 53.4997 36.8529 53.6671 36.6986C54.7008 35.7351 55.6609 34.6956 56.5394 33.5888C57.4121 32.4841 58.4726 31.0663 59.7209 29.3356C59.859 29.1257 59.9971 29.0263 60.1352 29.0263C60.2733 29.0263 60.2733 29.0815 60.2733 29.1975C60.2706 29.3899 60.2234 29.5789 60.1352 29.7499C60.0413 29.9432 59.9861 30.0647 59.964 30.1144C58.7377 32.2576 57.6533 33.9975 56.7106 35.3342C55.4711 37.1455 54.0335 38.8129 52.4243 40.3055C51.6178 41.0456 51.0047 41.4102 50.5905 41.4102C50.3784 41.4027 50.1701 41.3513 49.979 41.259C49.7879 41.1668 49.618 41.0358 49.4802 40.8744Z" fill="#1D1D1B"/>
<path d="M68.7793 35.0971C67.1719 36.9968 65.3137 38.6692 63.2558 40.0683C61.897 40.9631 60.7867 41.416 59.9416 41.416C59.4958 41.3591 59.0729 41.1858 58.7154 40.9134C58.1418 40.5282 57.6329 40.0547 57.2074 39.5104C56.6355 38.8396 56.3272 37.9836 56.3402 37.1021C56.3553 36.7069 56.4015 36.3135 56.4783 35.9256C57.0976 32.2591 58.9982 28.9315 61.8417 26.5355C62.5822 25.8925 63.3939 25.3365 64.261 24.8784C65.0036 24.4201 65.848 24.1526 66.719 24.0996C67.1192 24.1166 67.5046 24.2553 67.8238 24.4973C68.1976 24.7564 68.5105 25.0938 68.7407 25.486C69.0808 26.0372 69.2606 26.6722 69.2599 27.3199C69.2728 27.6274 69.2142 27.9337 69.0887 28.2147C68.923 28.5848 68.6744 29.0598 68.343 29.6342C68.0373 30.165 67.6959 30.6743 67.3211 31.1587C67.2548 31.2692 67.067 31.5123 66.7688 31.8823C66.448 32.2858 66.1011 32.6678 65.7303 33.0257C64.0769 34.576 62.604 35.3511 61.3115 35.3511C61.1291 35.3634 60.9462 35.3389 60.7735 35.2792C60.6008 35.2194 60.4419 35.1255 60.3062 35.0032C60.1441 35.6292 60.0061 36.2533 59.8919 36.8757C59.8676 37.0458 59.8565 37.2175 59.8588 37.3893C59.8256 37.7246 59.9247 38.0595 60.1349 38.3228C60.2385 38.4369 60.3675 38.5248 60.5115 38.5795C60.6555 38.6342 60.8103 38.6542 60.9635 38.6377C61.5586 38.6085 62.139 38.4421 62.6592 38.1516C63.7954 37.625 64.8637 36.9629 65.8408 36.1797C68.1912 34.2088 70.2516 31.916 71.9609 29.3691C71.9939 29.2838 72.0502 29.2095 72.1235 29.1548C72.1968 29.1001 72.284 29.0671 72.3752 29.0598C72.4691 29.0598 72.5188 29.115 72.5188 29.231C72.4515 29.5478 72.3341 29.8517 72.1708 30.1314C71.2271 31.9067 70.0896 33.5721 68.7793 35.0971ZM67.2604 28.0103C67.3266 27.6181 67.2106 27.4193 66.9124 27.4193C66.6555 27.4429 66.4078 27.5261 66.1888 27.6623C65.0617 28.2816 64.04 29.0758 63.1619 30.0154C62.2718 30.9623 61.5423 32.0481 61.0021 33.2301C61.0021 33.2301 61.0408 33.3074 61.1237 33.3847C61.1718 33.4288 61.2286 33.4624 61.2904 33.4833C61.3522 33.5043 61.4177 33.5121 61.4827 33.5063C61.8812 33.4468 62.2599 33.2935 62.5874 33.0589C63.1107 32.7422 63.6076 32.3838 64.0732 31.9873C64.9439 31.2819 65.7215 30.469 66.3876 29.568C66.7543 29.095 67.0484 28.57 67.2604 28.0103Z" fill="#1D1D1B"/>
<path d="M82.1216 32.7102C80.8622 33.5902 79.9103 34.0174 79.2659 33.9916C78.9257 34.0008 78.5919 33.898 78.3159 33.6989C78.0725 33.4613 77.8675 33.1874 77.7083 32.8869C77.508 32.4892 77.4021 32.0507 77.3989 31.6054C77.3982 31.1491 77.5041 30.6989 77.7083 30.2908C78.1778 29.3936 78.7229 28.5381 79.3377 27.7334C77.2191 29.8734 75.2966 32.1989 73.5932 34.6821C73.1145 35.4186 72.6303 36.2305 72.1405 37.118C71.6507 38.0054 71.253 38.8008 70.9474 39.5042C70.6381 40.1891 70.4503 40.6089 70.395 40.8022C70.3011 41.1944 70.141 41.3932 69.909 41.3932C69.5403 41.3431 69.1965 41.1789 68.9258 40.9237C68.5211 40.6117 68.1862 40.2185 67.9426 39.7693C67.7312 39.3519 67.6251 38.8893 67.6333 38.4215C67.6922 37.3988 67.9258 36.3938 68.3237 35.4499C68.9681 33.8149 69.8095 31.9939 70.848 29.987C71.7549 28.1861 72.8079 26.4624 73.9964 24.8335C74.1341 24.6489 74.2979 24.4852 74.4825 24.3475C74.6385 24.2193 74.833 24.1474 75.0348 24.1431C75.5788 24.1772 76.0932 24.4021 76.4876 24.7783C76.9223 25.1001 77.2388 25.5564 77.3879 26.0763C77.411 26.1304 77.4223 26.1888 77.421 26.2476C77.4133 26.4614 77.34 26.6678 77.2111 26.8386C76.7956 27.2933 76.4152 27.7789 76.0733 28.2913C74.8106 30.0084 73.7434 31.861 72.8917 33.8149C74.0429 31.9789 75.3007 30.212 76.6588 28.5233C77.3953 27.5769 78.2017 26.6434 79.0781 25.7228C79.9545 24.8022 80.691 24.272 81.2875 24.132C81.611 24.1138 81.9303 24.2118 82.1879 24.4082C82.5596 24.622 82.8786 24.9165 83.1214 25.2699C83.4688 25.7159 83.6626 26.2623 83.6737 26.8275C83.6993 27.0811 83.639 27.3359 83.5025 27.5511L81.8068 29.9373C81.6559 30.1502 81.5386 30.3849 81.4588 30.6333C81.3704 30.9095 81.3814 31.1028 81.4974 31.2188C81.6134 31.3348 82.094 31.2795 82.812 30.9095C83.5301 30.5394 84.331 30.092 85.2314 29.5617L85.6788 29.2469C85.955 29.1088 86.1428 29.0646 86.2311 29.1088C86.3195 29.153 86.303 29.1916 86.303 29.2137C86.2722 29.3843 86.1798 29.5376 86.0433 29.6446C85.9197 29.7755 85.7868 29.8973 85.6456 30.0091C84.552 30.9371 83.3773 31.8374 82.1216 32.7102Z" fill="#1D1D1B"/>
<path d="M85.954 55.5842C85.7773 56.2415 85.4017 55.9984 85.4017 55.6836C85.4017 55.3687 84.9543 54.96 84.1589 54.4408C77.3814 50.4638 51.8183 50.2926 42.9972 50.5743C28.9562 50.9885 14.7772 52.6125 3.53118 54.0652C2.98112 54.1281 2.4265 54.141 1.8741 54.1038C-0.373993 53.8608 -0.373993 51.3421 0.730723 51.0604C1.08843 51.2241 1.48183 51.2944 1.8741 51.2647C4.59628 51.1465 7.30927 50.8698 9.99929 50.4362C26.3933 48.0555 70.836 44.1338 83.4077 50.1158C84.4368 50.5465 85.2682 51.3458 85.7392 52.3572C86.2102 53.3685 86.2868 54.5193 85.954 55.5842Z" fill="#1D1D1B"/>
</svg>
