<svg width="24" height="24" viewBox="0 0 24 24" fill="none" xmlns="http://www.w3.org/2000/svg">
<path fill-rule="evenodd" clip-rule="evenodd" d="M3 11.5C3 6.80558 6.80558 3 11.5 3C16.1944 3 20 6.80558 20 11.5C20 13.4496 19.3436 15.2458 18.2399 16.6799L21.6001 19.2001C22.0419 19.5314 22.1314 20.1582 21.8001 20.6001C21.4687 21.0419 20.8419 21.1314 20.4001 20.8001L16.8294 18.1221C15.3716 19.2968 13.5179 20 11.5 20C6.80558 20 3 16.1944 3 11.5ZM11.5 18C7.91015 18 5 15.0899 5 11.5C5 7.91015 7.91015 5 11.5 5C15.0899 5 18 7.91015 18 11.5C18 15.0899 15.0899 18 11.5 18Z" fill="#1D1D1B"/>
</svg>
